<svg id="visual" viewBox="0 0 900 600" width="900" height="600" xmlns="http://www.w3.org/2000/svg" xmlns:xlink="http://www.w3.org/1999/xlink" version="1.1"><rect x="0" y="0" width="900" height="600" fill="#001220"></rect><path d="M0 434L6.5 430C13 426 26 418 39 417.3C52 416.7 65 423.3 78 420C91 416.7 104 403.3 117.2 396.5C130.3 389.7 143.7 389.3 156.8 381.8C170 374.3 183 359.7 196 350.2C209 340.7 222 336.3 235 342.5C248 348.7 261 365.3 274 381.3C287 397.3 300 412.7 313 421.7C326 430.7 339 433.3 352 433.3C365 433.3 378 430.7 391 431.2C404 431.7 417 435.3 430.2 425.3C443.3 415.3 456.7 391.7 469.8 389C483 386.3 496 404.7 509 407.5C522 410.3 535 397.7 548 395.8C561 394 574 403 587 406C600 409 613 406 626 397.8C639 389.7 652 376.3 665 379.3C678 382.3 691 401.7 704 407.5C717 413.3 730 405.7 743.2 396C756.3 386.3 769.7 374.7 782.8 365.3C796 356 809 349 822 353C835 357 848 372 861 388.8C874 405.7 887 424.3 893.5 433.7L900 443L900 601L893.5 601C887 601 874 601 861 601C848 601 835 601 822 601C809 601 796 601 782.8 601C769.7 601 756.3 601 743.2 601C730 601 717 601 704 601C691 601 678 601 665 601C652 601 639 601 626 601C613 601 600 601 587 601C574 601 561 601 548 601C535 601 522 601 509 601C496 601 483 601 469.8 601C456.7 601 443.3 601 430.2 601C417 601 404 601 391 601C378 601 365 601 352 601C339 601 326 601 313 601C300 601 287 601 274 601C261 601 248 601 235 601C222 601 209 601 196 601C183 601 170 601 156.8 601C143.7 601 130.3 601 117.2 601C104 601 91 601 78 601C65 601 52 601 39 601C26 601 13 601 6.5 601L0 601Z" fill="#3b3135"></path><path d="M0 456L6.5 441C13 426 26 396 39 389.7C52 383.3 65 400.7 78 401.8C91 403 104 388 117.2 396.3C130.3 404.7 143.7 436.3 156.8 451.5C170 466.7 183 465.3 196 465C209 464.7 222 465.3 235 466.3C248 467.3 261 468.7 274 452.7C287 436.7 300 403.3 313 394.3C326 385.3 339 400.7 352 417.5C365 434.3 378 452.7 391 456.7C404 460.7 417 450.3 430.2 445.5C443.3 440.7 456.7 441.3 469.8 444.7C483 448 496 454 509 449.7C522 445.3 535 430.7 548 429.2C561 427.7 574 439.3 587 445.7C600 452 613 453 626 439.3C639 425.7 652 397.3 665 386C678 374.7 691 380.3 704 397.5C717 414.7 730 443.3 743.2 456.3C756.3 469.3 769.7 466.7 782.8 453.5C796 440.3 809 416.7 822 412.3C835 408 848 423 861 431.7C874 440.3 887 442.7 893.5 443.8L900 445L900 601L893.5 601C887 601 874 601 861 601C848 601 835 601 822 601C809 601 796 601 782.8 601C769.7 601 756.3 601 743.2 601C730 601 717 601 704 601C691 601 678 601 665 601C652 601 639 601 626 601C613 601 600 601 587 601C574 601 561 601 548 601C535 601 522 601 509 601C496 601 483 601 469.8 601C456.7 601 443.3 601 430.2 601C417 601 404 601 391 601C378 601 365 601 352 601C339 601 326 601 313 601C300 601 287 601 274 601C261 601 248 601 235 601C222 601 209 601 196 601C183 601 170 601 156.8 601C143.7 601 130.3 601 117.2 601C104 601 91 601 78 601C65 601 52 601 39 601C26 601 13 601 6.5 601L0 601Z" fill="#5a3540"></path><path d="M0 439L6.5 449C13 459 26 479 39 487.3C52 495.7 65 492.3 78 483.5C91 474.7 104 460.3 117.2 453.3C130.3 446.3 143.7 446.7 156.8 443.3C170 440 183 433 196 426.2C209 419.3 222 412.7 235 415.8C248 419 261 432 274 434.2C287 436.3 300 427.7 313 426.7C326 425.7 339 432.3 352 438.7C365 445 378 451 391 448C404 445 417 433 430.2 427C443.3 421 456.7 421 469.8 432.3C483 443.7 496 466.3 509 465.5C522 464.7 535 440.3 548 431.8C561 423.3 574 430.7 587 434.3C600 438 613 438 626 436.3C639 434.7 652 431.3 665 431C678 430.7 691 433.3 704 436.7C717 440 730 444 743.2 451.2C756.3 458.3 769.7 468.7 782.8 470.8C796 473 809 467 822 466.2C835 465.3 848 469.7 861 471.7C874 473.7 887 473.3 893.5 473.2L900 473L900 601L893.5 601C887 601 874 601 861 601C848 601 835 601 822 601C809 601 796 601 782.8 601C769.7 601 756.3 601 743.2 601C730 601 717 601 704 601C691 601 678 601 665 601C652 601 639 601 626 601C613 601 600 601 587 601C574 601 561 601 548 601C535 601 522 601 509 601C496 601 483 601 469.8 601C456.7 601 443.3 601 430.2 601C417 601 404 601 391 601C378 601 365 601 352 601C339 601 326 601 313 601C300 601 287 601 274 601C261 601 248 601 235 601C222 601 209 601 196 601C183 601 170 601 156.8 601C143.7 601 130.3 601 117.2 601C104 601 91 601 78 601C65 601 52 601 39 601C26 601 13 601 6.5 601L0 601Z" fill="#793646"></path><path d="M0 471L6.5 472.8C13 474.7 26 478.3 39 476.3C52 474.3 65 466.7 78 464.5C91 462.3 104 465.7 117.2 474C130.3 482.3 143.7 495.7 156.8 501.5C170 507.3 183 505.7 196 501.5C209 497.3 222 490.7 235 489.2C248 487.7 261 491.3 274 495.8C287 500.3 300 505.7 313 506C326 506.3 339 501.7 352 503C365 504.3 378 511.7 391 510.5C404 509.3 417 499.7 430.2 493.7C443.3 487.7 456.7 485.3 469.8 485.7C483 486 496 489 509 484.5C522 480 535 468 548 470.5C561 473 574 490 587 501.8C600 513.7 613 520.3 626 511.5C639 502.7 652 478.3 665 471.7C678 465 691 476 704 488.2C717 500.3 730 513.7 743.2 516.5C756.3 519.3 769.7 511.7 782.8 498.8C796 486 809 468 822 468C835 468 848 486 861 492C874 498 887 492 893.5 489L900 486L900 601L893.5 601C887 601 874 601 861 601C848 601 835 601 822 601C809 601 796 601 782.8 601C769.7 601 756.3 601 743.2 601C730 601 717 601 704 601C691 601 678 601 665 601C652 601 639 601 626 601C613 601 600 601 587 601C574 601 561 601 548 601C535 601 522 601 509 601C496 601 483 601 469.8 601C456.7 601 443.3 601 430.2 601C417 601 404 601 391 601C378 601 365 601 352 601C339 601 326 601 313 601C300 601 287 601 274 601C261 601 248 601 235 601C222 601 209 601 196 601C183 601 170 601 156.8 601C143.7 601 130.3 601 117.2 601C104 601 91 601 78 601C65 601 52 601 39 601C26 601 13 601 6.5 601L0 601Z" fill="#983645"></path><path d="M0 506L6.5 506.7C13 507.3 26 508.7 39 508.5C52 508.3 65 506.7 78 512C91 517.3 104 529.7 117.2 534.8C130.3 540 143.7 538 156.8 535C170 532 183 528 196 528.3C209 528.7 222 533.3 235 532.2C248 531 261 524 274 525.8C287 527.7 300 538.3 313 536.2C326 534 339 519 352 511.5C365 504 378 504 391 507C404 510 417 516 430.2 515C443.3 514 456.7 506 469.8 509.7C483 513.3 496 528.7 509 536.5C522 544.3 535 544.7 548 539.2C561 533.7 574 522.3 587 522C600 521.7 613 532.3 626 539.7C639 547 652 551 665 545.2C678 539.3 691 523.7 704 522.3C717 521 730 534 743.2 540.3C756.3 546.7 769.7 546.3 782.8 540C796 533.7 809 521.3 822 518.3C835 515.3 848 521.7 861 520.3C874 519 887 510 893.5 505.5L900 501L900 601L893.5 601C887 601 874 601 861 601C848 601 835 601 822 601C809 601 796 601 782.8 601C769.7 601 756.3 601 743.2 601C730 601 717 601 704 601C691 601 678 601 665 601C652 601 639 601 626 601C613 601 600 601 587 601C574 601 561 601 548 601C535 601 522 601 509 601C496 601 483 601 469.8 601C456.7 601 443.3 601 430.2 601C417 601 404 601 391 601C378 601 365 601 352 601C339 601 326 601 313 601C300 601 287 601 274 601C261 601 248 601 235 601C222 601 209 601 196 601C183 601 170 601 156.8 601C143.7 601 130.3 601 117.2 601C104 601 91 601 78 601C65 601 52 601 39 601C26 601 13 601 6.5 601L0 601Z" fill="#b6363e"></path><path d="M0 537L6.5 544.8C13 552.7 26 568.3 39 572.5C52 576.7 65 569.3 78 567.3C91 565.3 104 568.7 117.2 562.7C130.3 556.7 143.7 541.3 156.8 541.7C170 542 183 558 196 562C209 566 222 558 235 555.8C248 553.7 261 557.3 274 560.2C287 563 300 565 313 559.3C326 553.7 339 540.3 352 536C365 531.7 378 536.3 391 540.7C404 545 417 549 430.2 556.2C443.3 563.3 456.7 573.7 469.8 571.5C483 569.3 496 554.7 509 550.7C522 546.7 535 553.3 548 560.2C561 567 574 574 587 572.3C600 570.7 613 560.3 626 552C639 543.7 652 537.3 665 535.2C678 533 691 535 704 535.5C717 536 730 535 743.2 542.5C756.3 550 769.7 566 782.8 567.2C796 568.3 809 554.7 822 548C835 541.3 848 541.7 861 544.7C874 547.7 887 553.3 893.5 556.2L900 559L900 601L893.5 601C887 601 874 601 861 601C848 601 835 601 822 601C809 601 796 601 782.8 601C769.7 601 756.3 601 743.2 601C730 601 717 601 704 601C691 601 678 601 665 601C652 601 639 601 626 601C613 601 600 601 587 601C574 601 561 601 548 601C535 601 522 601 509 601C496 601 483 601 469.8 601C456.7 601 443.3 601 430.2 601C417 601 404 601 391 601C378 601 365 601 352 601C339 601 326 601 313 601C300 601 287 601 274 601C261 601 248 601 235 601C222 601 209 601 196 601C183 601 170 601 156.8 601C143.7 601 130.3 601 117.2 601C104 601 91 601 78 601C65 601 52 601 39 601C26 601 13 601 6.5 601L0 601Z" fill="#d03b30"></path></svg>